<?xml version="1.0" encoding="utf-8"?>
<!-- Generator: Adobe Illustrator 27.0.0, SVG Export Plug-In . SVG Version: 6.00 Build 0)  -->
<svg version="1.0" xmlns="http://www.w3.org/2000/svg" xmlns:xlink="http://www.w3.org/1999/xlink" x="0px" y="0px"
	 viewBox="0 0 250 150" enable-background="new 0 0 250 150" xml:space="preserve">
<g id="gamepad__x28_копия_x29_" display="none">
	<g display="inline">
		<g>
			<g>
				<path fill="#FFFFFF" stroke="#000000" stroke-miterlimit="10" d="M120.6,93.88c0.59,0,1.17,0,1.76,0"/>
				<path fill="#FFFFFF" stroke="#000000" stroke-miterlimit="10" d="M120.6,16.26c-4.75-0.02-9.85,0-13.04,0.13
					c-3.81,0.15-6.94,0.35-8.98,0.5c-0.02,0-0.03,0-0.05,0c-4.68,0.04-7.88,0.53-9.98,1c0,0,0,0,0,0c-0.8,0.2-3.59,0.87-8,1
					c-0.61,0.02-1.41,0.03-2.35,0.02c-0.36-0.01-0.65-0.3-0.65-0.66l0-1.6c0-0.25-0.13-0.48-0.36-0.59
					c-0.89-0.44-2.12-0.93-3.64-1.17c-1.13-0.18-2.11-0.17-4,0c-1.58,0.14-3.64,0.38-6.08,0.82c-1.54,0.51-3.06,1.01-4.6,1.52
					l-4.97,2.48c-0.31,0.15-0.35,0.23-0.35,0.3v1.4c0,1.37-1.11,2.48-2.48,2.48h0c-0.32,0-0.62,0.17-0.77,0.46
					c-3.77,7.13-7.59,15.66-10.76,25.54c-1.69,5.27-2.99,10.3-4,15l-3,16c-0.22,1.18-0.43,2.43-0.6,3.77
					c-0.06,0.48-0.27,2.12-0.4,4.23c-0.92,14.29-0.06,24.62-0.06,24.62c0.79,9.53,1.97,12.2,3,14c0.89,1.56,3.5,5.63,8,7
					c0.94,0.29,1.21,0.22,6,1c5.79,0.94,5.56,1.05,6,1c4.26-0.51,5.32-8.97,12-25c0,0,4.64-12.22,10.41-15.86
					c2.88-1.82,5.59-2.14,5.59-2.14c1.17-0.14,2.27-0.09,4,0c1.74,0.09,3.19,0.25,4.22,0.38c9.96,0,19.92,0,29.88,0"/>
				<path fill="#FFFFFF" stroke="#000000" stroke-miterlimit="10" d="M122.36,16.27c-0.58,0-1.17-0.01-1.76-0.01"/>
			</g>
			<g>
				<path fill="#FFFFFF" stroke="#000000" stroke-miterlimit="10" d="M121.94,93.88"/>
			</g>
		</g>
		<path fill="none" stroke="#000000" stroke-width="0.75" stroke-miterlimit="10" d="M77.5,18.5C86,24,85,36,87,45c1,5,0,10-2,14
			c-6,7-11,14-16,22c-4,8-8,16-12,24c-4,10-6,21-11.28,30.28"/>
		<g>
			<g>
				<path fill="#FFFFFF" stroke="#000000" stroke-miterlimit="10" d="M121.94,16.27c5.21-0.03,11.22-0.02,14.8,0.12
					c3.81,0.15,6.94,0.35,8.98,0.5c0.01,0,0.03,0,0.04,0c4.68,0.04,7.88,0.53,9.98,1c0,0,0,0,0,0c0.8,0.2,3.59,0.87,8,1
					c0.61,0.02,1.41,0.03,2.35,0.02c0.36-0.01,0.65-0.3,0.65-0.66l0-1.6c0-0.25,0.13-0.48,0.36-0.59c0.89-0.44,2.12-0.93,3.64-1.17
					c1.13-0.18,2.11-0.17,4,0c1.58,0.14,3.64,0.38,6.08,0.82c1.54,0.51,3.06,1.01,4.6,1.52l4.97,2.48c0.31,0.15,0.35,0.23,0.35,0.3
					v1.4c0,1.38,1.12,2.49,2.5,2.48c0.31,0,0.59,0.18,0.74,0.45c3.78,7.13,7.59,15.67,10.76,25.55c1.69,5.27,2.99,10.3,4,15l3,16
					c0.22,1.18,0.43,2.43,0.6,3.77c0.25,1.95,0.35,3.45,0.4,4.23c0.53,8.2,1.07,16.69,0,23c-0.11,0.64-0.46,2.59-1,5
					c-0.41,1.84-0.62,2.77-1,4c-0.21,0.66-0.89,2.87-2,5c-1.07,2.06-3.51,6.76-8.24,8.62c-0.6,0.23-2.06,0.49-5,1
					c-4.19,0.73-6.28,1.09-7,1c-3.5-0.44-5.33-5.54-10-19c-4.09-11.79-5.24-15.29-9-19c-4.12-4.06-7.75-4.81-9-5
					c-2.94-0.46-5.46-0.59-7.11-0.26c-0.7,0.14-1.41,0.25-2.13,0.24c-9.77-0.12-19.54,0.6-29.31,0.4"/>
			</g>
			<g>
				<path fill="#FFFFFF" stroke="#000000" stroke-miterlimit="10" d="M122.36,93.88"/>
			</g>
		</g>
		<path fill="none" stroke="#000000" stroke-width="0.75" stroke-miterlimit="10" d="M166.5,18.5c-0.72,0.08-1.86,0.3-3,1
			c-2.88,1.77-3.64,5.3-4,7c-4.6,21.46-5.32,23.03-4,27c0.57,1.72,3.05,5.15,8,12c4.6,6.36,7.4,9.43,11,16c0.48,0.88,1.32,2.59,3,6
			c4.56,9.26,6.83,13.89,8,17c2.41,6.4,4.7,14.89,5,16c0.36,1.32,1.15,4.34,3,8c1.1,2.18,3.21,5.88,4,7"/>
		<path fill="none" stroke="#000000" stroke-width="0.75" stroke-miterlimit="10" d="M82.5,60.5"/>
		<path fill="#FFFFFF" stroke="#000000" stroke-miterlimit="10" d="M69.5,63.5c-0.37,0.35-2.18,2-5,2c-0.51,0-2.96-0.05-5-2
			c0.33-2.33,0.67-4.67,1-7c0.48-0.41,1.21-1.08,2-2c1.11-1.29,1.4-2,2-2c0.6,0,0.89,0.71,2,2c0.79,0.92,1.52,1.59,2,2
			C68.83,58.83,69.17,61.17,69.5,63.5z"/>
		<path fill="#FFFFFF" stroke="#000000" stroke-miterlimit="10" d="M59.36,37.66c0.36-0.36,2.11-2.07,4.93-2.16
			c0.51-0.02,2.96-0.04,5.06,1.84c-0.26,2.34-0.52,4.69-0.78,7.03c-0.47,0.43-1.18,1.12-1.93,2.06c-1.07,1.33-1.33,2.04-1.93,2.06
			c-0.6,0.02-0.91-0.68-2.06-1.93c-0.82-0.89-1.57-1.54-2.06-1.93C60.17,42.31,59.77,39.98,59.36,37.66z"/>
		<path fill="#FFFFFF" stroke="#000000" stroke-miterlimit="10" d="M77.43,45.42c0.35,0.37,2,2.18,2,5c0,0.51-0.05,2.96-2,5
			c-2.33-0.33-4.67-0.66-7-1c-0.41-0.48-1.08-1.21-2-2c-1.3-1.11-2-1.39-2-2c0-0.6,0.7-0.89,2-2c0.92-0.79,1.59-1.52,2-2
			C72.76,46.09,75.09,45.76,77.43,45.42z"/>
		<path fill="#FFFFFF" stroke="#000000" stroke-miterlimit="10" d="M51.59,55.58c-0.36-0.36-2.07-2.11-2.16-4.93
			c-0.02-0.51-0.04-2.96,1.84-5.06c2.34,0.26,4.69,0.51,7.03,0.77c0.43,0.47,1.12,1.18,2.06,1.93c1.33,1.06,2.04,1.33,2.06,1.93
			c0.02,0.6-0.68,0.91-1.93,2.06c-0.89,0.82-1.54,1.57-1.93,2.06C56.24,54.76,53.92,55.17,51.59,55.58z"/>
		<path fill="#FFFFFF" stroke="#000000" stroke-width="0.75" stroke-miterlimit="10" d="M185.5,50.5c-0.09-1.99,0.87-3.97,2.5-5.16
			c2.17-1.58,5.28-1.59,7.5,0.16c2.05,1.62,2.95,4.45,2,7c-0.95,2.55-3.47,4.09-6,4C188.22,56.38,185.64,53.55,185.5,50.5z"/>
		<g>
			<path fill="#FFFFFF" stroke="#000000" stroke-width="0.75" stroke-miterlimit="10" d="M189.1,49.46c0.26-1.12,1.11-1.76,1.4-1.96
				c0.99-0.53,2.16-0.55,3,0c1.2,0.79,1.63,2.67,0.68,4.25c-0.75,1.16-2.08,1.71-3.23,1.39C189.41,52.71,188.78,50.83,189.1,49.46z"
				/>
		</g>
		<path fill="#FFFFFF" stroke="#000000" stroke-width="0.75" stroke-miterlimit="10" d="M159.5,47.5c1.15-2.08,3.57-3.3,6-3
			c2.27,0.28,4.2,1.82,5,4c0.96,2.56,0.12,5.43-2,7c-2.2,1.62-5.07,1.33-7,0C159.01,53.78,157.99,50.23,159.5,47.5z"/>
		<path fill="#FFFFFF" stroke="#000000" stroke-width="0.75" stroke-miterlimit="10" d="M178.5,57.5c2.82,0.07,5.44,2.08,6,5
			c0.56,2.94-1.12,5.93-4,7c-0.46,0.16-2.83,0.93-5.12-0.3c-2.56-1.38-4-4.73-2.88-7.7C173.43,59.04,175.89,57.44,178.5,57.5z"/>
		<path fill="#FFFFFF" stroke="#000000" stroke-width="0.75" stroke-miterlimit="10" d="M178.5,30.5c2.12,0.03,4.05,1.29,5,3
			c1.7,3.06,0.37,7.7-3,9c-2.6,1-5.64-0.27-7-2c-0.04-0.04-0.06-0.08-0.09-0.11c-0.31-0.5-1.45-2.48-0.91-4.89
			C173.09,32.86,175.53,30.46,178.5,30.5z"/>
		<g>
			<polygon fill="#FFFFFF" stroke="#000000" stroke-width="0.75" stroke-miterlimit="10" points="181.5,38.5 178.35,33.5 
				175.5,38.5 			"/>
		</g>
		<g>
			<line stroke="#000000" stroke-width="0.75" stroke-miterlimit="10" x1="181.46" y1="60.46" x2="175.54" y2="66.54"/>
			<line stroke="#000000" stroke-width="0.75" stroke-miterlimit="10" x1="175.65" y1="60.35" x2="181.35" y2="66.65"/>
		</g>
		<g>
			<rect x="162.5" y="48.5" fill="none" stroke="#000000" stroke-width="0.75" stroke-miterlimit="10" width="4.78" height="4.39"/>
		</g>
		<path fill="#FFFFFF" stroke="#000000" stroke-width="0.75" stroke-miterlimit="10" d="M80.55,27.53c0.31,1.67,0.61,3.34,0.92,5.02
			c-0.11,0.93-0.81,1.7-1.72,1.89c-0.88,0.19-1.8-0.19-2.29-0.95c-0.47-1.62-0.76-3-0.94-4.02c-0.19-1.09-0.22-1.54,0.03-2
			c0.5-0.9,1.93-1.48,3.02-0.95C80.14,26.79,80.43,27.29,80.55,27.53z"/>
		<path fill="#FFFFFF" stroke="#000000" stroke-width="0.75" stroke-miterlimit="10" d="M166.39,28.22
			c-0.25,1.68-0.5,3.36-0.75,5.04c-0.41,0.85-1.32,1.34-2.24,1.23c-0.89-0.11-1.64-0.76-1.86-1.64c0.08-1.69,0.25-3.08,0.41-4.1
			c0.17-1.09,0.29-1.53,0.68-1.88c0.76-0.69,2.3-0.78,3.16,0.07C166.24,27.39,166.35,27.95,166.39,28.22z"/>
		<path fill="none" stroke="#000000" stroke-width="0.75" stroke-miterlimit="10" d="M120.6,56.5c3.36,0,6.71,0,10.07,0
			c3.82,0,6.85,0,8.83,0c4.43,0,6.1,0.01,8-1c2.09-1.1,3.32-2.82,4-4c0.33-1,0.67-2,1-3c2.38-10.63,4.09-18.5,5-22
			c0.22-0.85,0.76-2.83,0-5c-0.51-1.47-1.42-2.46-2-3c-0.33-0.33-0.67-0.67-1-1"/>
		<path fill="none" stroke="#000000" stroke-width="0.75" stroke-miterlimit="10" d="M87.5,18.5c-0.43-0.06,2.16-0.91,2.13-1
			c-0.01-0.02-0.12,0-0.13,0c-0.4,0.07-2.87,0.9-4,3c-1,1.85-0.5,3.84,0,6c0,0,0.87,3.76,3,15c0.38,2.01,0.83,4.58,2,8
			c0.43,1.26,0.84,2.29,1.14,3c0.41,0.6,1.01,1.32,1.86,2c1.93,1.53,3.99,1.9,5,2c7.37,0,14.73,0,22.1,0"/>
		<path fill="none" stroke="#000000" stroke-width="0.75" stroke-miterlimit="10" d="M102.5,71.5c1.87,4.98-0.67,10.55-5,13
			c-5.05,2.86-12.2,1.3-15-4c-2.92-5.55,0.19-12.78,6-15C93.82,63.47,100.43,66.01,102.5,71.5z"/>
		<path stroke="#000000" stroke-width="0.75" stroke-miterlimit="10" d="M98.61,72.96c1.16,3.09-0.42,6.54-3.1,8.07
			c-3.13,1.78-7.57,0.81-9.31-2.48c-1.82-3.44,0.12-7.93,3.72-9.31C93.22,67.98,97.33,69.55,98.61,72.96z"/>
		<path fill="none" stroke="#000000" stroke-width="0.75" stroke-miterlimit="10" d="M160.5,71.5c1.87,4.98-0.67,10.55-5,13
			c-5.05,2.86-12.2,1.3-15-4c-2.92-5.55,0.19-12.78,6-15C151.82,63.47,158.43,66.01,160.5,71.5z"/>
		<path stroke="#000000" stroke-width="0.75" stroke-miterlimit="10" d="M156.43,73.03c1.13,3-0.4,6.35-3.01,7.83
			c-3.04,1.72-7.35,0.78-9.04-2.41c-1.76-3.34,0.12-7.7,3.61-9.04C151.2,68.2,155.18,69.72,156.43,73.03z"/>
		<g>
			<path stroke="#000000" stroke-width="0.25" stroke-miterlimit="10" d="M118.54,84h5.92c0.85,0,1.54,0.5,1.54,1.12v0.03
				c0,0.62-0.7,1.13-1.55,1.12l-5.92-0.03c-0.84,0-1.53-0.51-1.53-1.12l0,0C117,84.5,117.69,84,118.54,84z"/>
		</g>
		<g>
			<circle stroke="#000000" stroke-width="0.25" stroke-miterlimit="10" cx="114.7" cy="62" r="1"/>
		</g>
		<g>
			<circle stroke="#000000" stroke-width="0.25" stroke-miterlimit="10" cx="118" cy="62" r="1"/>
		</g>
		<g>
			<circle stroke="#000000" stroke-width="0.25" stroke-miterlimit="10" cx="118" cy="62" r="1"/>
		</g>
		<g>
			<circle stroke="#000000" stroke-width="0.25" stroke-miterlimit="10" cx="124.7" cy="62" r="1"/>
		</g>
		<g>
			<circle stroke="#000000" stroke-width="0.25" stroke-miterlimit="10" cx="121.3" cy="62" r="1"/>
		</g>
		<g>
			<circle stroke="#000000" stroke-width="0.25" stroke-miterlimit="10" cx="121.3" cy="62" r="1"/>
		</g>
		<g>
			<circle stroke="#000000" stroke-width="0.25" stroke-miterlimit="10" cx="116.4" cy="64.8" r="1"/>
		</g>
		<g>
			<circle stroke="#000000" stroke-width="0.25" stroke-miterlimit="10" cx="119.6" cy="64.8" r="1"/>
		</g>
		<g>
			<circle stroke="#000000" stroke-width="0.25" stroke-miterlimit="10" cx="119.6" cy="64.8" r="1"/>
		</g>
		<g>
			<circle stroke="#000000" stroke-width="0.25" stroke-miterlimit="10" cx="126.4" cy="64.8" r="1"/>
		</g>
		<g>
			<circle stroke="#000000" stroke-width="0.25" stroke-miterlimit="10" cx="123" cy="64.8" r="1"/>
		</g>
		<g>
			<circle stroke="#000000" stroke-width="0.25" stroke-miterlimit="10" cx="123" cy="64.8" r="1"/>
		</g>
		<g>
			<circle stroke="#000000" stroke-width="0.25" stroke-miterlimit="10" cx="128" cy="62" r="1"/>
		</g>
		<path fill="none" stroke="#000000" stroke-width="0.75" stroke-miterlimit="10" d="M166.5,18.5c8,1.33,16,2.67,24,4"/>
		<g>
			<g>
				<path d="M173.93,19.13c0.58,0.17,1.17,0.26,1.77,0.3c1.47,0.09,2.06-2.13,0.76-2.8c-0.64-0.32-1.29-0.59-1.98-0.76
					c-1.3-0.34-2.31,1.05-1.69,2.2c0.41,0.76,0.98,1.16,1.78,1.46c0.27-0.96,0.53-1.93,0.8-2.89c-0.17-0.04-0.34-0.09-0.51-0.15
					c-0.39,0.91-0.77,1.83-1.16,2.74c0.18,0.06,0.36,0.12,0.53,0.18c0.27-0.96,0.53-1.93,0.8-2.89c-0.26-0.05-0.53-0.1-0.79-0.14
					c-0.13,0.98-0.27,1.96-0.4,2.95c0.28,0.04,0.56,0.08,0.85,0.11c0.68,0.09,1.24-0.54,1.45-1.1c0.68-1.89-0.32-4.01-2.55-3.61
					c-1.01,0.18-1.3,1.42-0.9,2.2c0.41,0.79,1.14,1.16,2.01,1.2c1.22,0.06,2.09-1.75,1.06-2.56c-1.37-1.08-3.73-2.08-4.92-0.17
					c-1.16,1.85,0.72,3.25,2.41,3.32c1.22,0.04,1.76-1.29,1.3-2.26c-0.71-1.49-2.69-1.99-4.05-1.09c-0.78,0.51-1.05,1.66-0.3,2.36
					c0.09,0.08,0.17,0.16,0.26,0.24c1.12,1.05,2.82,0,2.51-1.46c-0.4-1.89-2.96-2.26-3.82-0.49c-0.43,0.89-0.08,1.9,0.9,2.2
					c0.58,0.18,1.08,0.14,1.57-0.22c0.84-0.62,1.09-2.03,0-2.59c-1.17-0.6-2.46-0.63-3.57,0.13c-0.96,0.66-0.96,1.93,0,2.59
					c0.68,0.47,1.37,0.38,2.07,0.04c1.23-0.58,0.78-2.39-0.36-2.74c-0.79-0.24-1.6-0.25-2.33,0.16c-0.42,0.23-0.79,0.79-0.74,1.3
					c0.2,1.96,2.55,2.42,4.2,2.71c1.98,0.35,3.98,0.36,5.98,0.55c2.13,0.2,4.25,0.57,6.36,0.92c2.04,0.33,4.1,0.63,6.09,1.19
					c1.58,0.45,2.75-2.06,1.16-2.74c-4.55-1.94-9.22-3.51-14.04-4.64c-1.88-0.44-2.68,2.45-0.8,2.89c4.55,1.07,9.02,2.5,13.32,4.34
					c0.39-0.91,0.77-1.83,1.16-2.74c-3.47-0.98-7.17-1.42-10.74-1.91c-1.75-0.24-3.49-0.38-5.25-0.49
					c-0.82-0.05-1.64-0.11-2.44-0.25c-0.66-0.11-1.88-0.24-2.41-0.66c0.15,0.35,0.29,0.71,0.44,1.06c-0.01-0.07-0.01-0.14-0.02-0.21
					c-0.25,0.43-0.5,0.86-0.74,1.3c0.01,0.05,0.01,0.1,0.02,0.14c-0.12-0.91-0.24-1.83-0.36-2.74c0.32-0.01,0.64-0.03,0.96-0.04
					c0,0.86,0,1.73,0,2.59c0.23-0.16,0.3-0.25,0.55-0.13c0-0.86,0-1.73,0-2.59c-0.06,0.05-0.13,0.09-0.19,0.14
					c0.39-0.05,0.77-0.1,1.16-0.15c-0.07-0.02-0.15-0.05-0.22-0.07c0.3,0.73,0.6,1.47,0.9,2.2c-0.55-0.08-1.11-0.15-1.66-0.23
					c0.84-0.49,1.67-0.97,2.51-1.46c-0.09-0.08-0.17-0.16-0.26-0.24c-0.1,0.79-0.2,1.57-0.3,2.36c0.14-0.09-0.12-0.14-0.05,0.02
					c0.43-0.75,0.86-1.5,1.3-2.26c-0.75-0.03-0.79,1.23-0.25,1.63c0.19,0.14,0.45,0.2,0.64,0.35c0.35-0.85,0.71-1.71,1.06-2.56
					c0.19,0.09,0.39,0.19,0.58,0.28c-0.3,0.73-0.6,1.47-0.9,2.2c-0.55-0.75-0.89-0.91-1-0.47c-0.04,0.13-0.09,0.26-0.14,0.39
					c0.48-0.37,0.96-0.73,1.45-1.1c-0.28-0.04-0.56-0.08-0.85-0.11c-1.66-0.22-2.06,2.65-0.4,2.95c0.26,0.05,0.53,0.1,0.79,0.14
					c1.89,0.34,2.65-2.28,0.8-2.89c-0.18-0.06-0.36-0.12-0.53-0.18c-1.59-0.53-2.72,2.05-1.16,2.74c0.4,0.18,0.8,0.34,1.23,0.45
					c1.89,0.5,2.59-2.24,0.8-2.89c0-0.03,0.01-0.05,0.01-0.08c-0.56,0.73-1.13,1.47-1.69,2.2c0.45,0.12,0.85,0.25,1.26,0.46
					c0.25-0.93,0.5-1.86,0.76-2.8c-0.35-0.02-0.64-0.09-0.97-0.19C172.87,15.69,172.08,18.58,173.93,19.13L173.93,19.13z"/>
			</g>
		</g>
		<g>
			<g>
				<path d="M189.59,22.52c1.93,0,1.93-3,0-3C187.65,19.52,187.65,22.52,189.59,22.52L189.59,22.52z"/>
			</g>
		</g>
		<g>
			<g>
				<path d="M168.07,19.14c1.93,0,1.93-3,0-3C166.14,16.14,166.14,19.14,168.07,19.14L168.07,19.14z"/>
			</g>
		</g>
		<path fill="none" stroke="#000000" stroke-width="0.75" stroke-miterlimit="10" d="M77.5,18.5c-8.33,1.67-16.67,3.33-25,5"/>
		<g>
			<g>
				<path d="M54.62,23.13c1.93,0,1.93-3,0-3C52.69,20.13,52.68,23.13,54.62,23.13L54.62,23.13z"/>
			</g>
		</g>
		<g>
			<g>
				<path d="M55.89,22.88c3.04-0.47,5.88-1.89,8.95-2.2c-0.13-0.98-0.27-1.96-0.4-2.95c-0.68,0.15-1.35,0.29-2.03,0.44
					c-1.62,0.35-1.3,3.14,0.4,2.95c4.53-0.51,8.92-2.02,13.49-2.17c1.38-0.04,2.18-2.12,0.76-2.8c-1.93-0.91-4.02-1.42-6.17-1.27
					c-2.31,0.16-4.61,0.71-6.89,1.1c-1.65,0.28-1.29,3.12,0.4,2.95c1.45-0.15,2.64-0.95,4.06-1.16c1.67-0.25,1.28-3.05-0.4-2.95
					c-1.18,0.07-2.43,0.18-3.57,0.52c-0.55,0.17-1,0.45-1.51,0.69c-0.53,0.25-1.14,0.34-1.71,0.48c-2.46,0.63-4.84,1.56-7.09,2.72
					c-1.72,0.88-0.2,3.47,1.51,2.59c2.03-1.04,4.16-1.85,6.38-2.42c1.03-0.26,1.9-0.58,2.85-1.03c0.94-0.44,2.12-0.5,3.14-0.56
					c-0.13-0.98-0.27-1.96-0.4-2.95c-1.14,0.17-2.13,0.94-3.26,1.05c0.13,0.98,0.27,1.96,0.4,2.95c3.56-0.61,7.3-1.77,10.74-0.14
					c0.25-0.93,0.5-1.86,0.76-2.8c-4.59,0.15-8.96,1.65-13.49,2.17c0.13,0.98,0.27,1.96,0.4,2.95c0.68-0.15,1.35-0.29,2.03-0.44
					c1.62-0.35,1.3-3.11-0.4-2.95c-3.36,0.33-6.43,1.8-9.74,2.3c-0.81,0.12-1.24,1.13-1.05,1.85C54.27,22.69,55.09,23,55.89,22.88
					L55.89,22.88z"/>
			</g>
		</g>
		<g>
			<g>
				<path d="M54.87,23.38c1.93,0,1.93-3,0-3C52.94,20.38,52.94,23.38,54.87,23.38L54.87,23.38z"/>
			</g>
		</g>
		<g>
			<g>
				<path d="M54.78,23.45c1.93,0,1.93-3,0-3C52.85,20.45,52.84,23.45,54.78,23.45L54.78,23.45z"/>
			</g>
		</g>
		<g opacity="0.38">
			<line fill="none" stroke="#FFFFFF" stroke-width="0.25" stroke-miterlimit="10" x1="54" y1="21" x2="76.36" y2="16.45"/>
		</g>
		<g opacity="0.38">
			<line fill="none" stroke="#FFFFFF" stroke-width="0.25" stroke-miterlimit="10" x1="190" y1="21" x2="167" y2="16"/>
		</g>
	</g>
</g>
<g id="Слой_4">
	<g>
		<g>
			<g>
				<path fill="none" stroke="#000000" stroke-miterlimit="10" d="M94.36,105.88c-0.14,0-0.28,0-0.42,0"/>
				<linearGradient id="SVGID_1_" gradientUnits="userSpaceOnUse" x1="56.9226" y1="48.3771" x2="103.11" y2="48.3771">
					<stop  offset="0" style="stop-color:#FFFFFF"/>
					<stop  offset="0.5003" style="stop-color:#787878"/>
					<stop  offset="0.8446" style="stop-color:#222222"/>
					<stop  offset="1" style="stop-color:#000000"/>
				</linearGradient>
				<path fill="url(#SVGID_1_)" stroke="#000000" stroke-miterlimit="10" d="M103.11,56.46l-9.17,10.77l-1.08,1.27H70.5
					c-1.01-0.1-3.07-0.47-5-2c-0.85-0.68-1.45-1.4-1.86-2c-0.3-0.71-0.71-1.74-1.14-3c-1.17-3.42-1.62-5.99-2-8
					c-2.13-11.24-3-15-3-15c-0.5-2.16-1-4.15,0-6c0.08-0.16,0.18-0.31,0.27-0.45c0.01-0.01,0.01-0.01,0.02-0.02
					c0.1-0.15,0.21-0.29,0.33-0.42c0.11-0.14,0.23-0.26,0.35-0.38c0.13-0.12,0.25-0.24,0.38-0.34c0.21-0.18,0.43-0.33,0.64-0.47
					c0.01-0.01,0.03-0.02,0.05-0.03c0.01-0.01,0.04-0.02,0.06-0.03c0.28-0.15,0.9-0.38,1.37-0.57c0.02,0,0.03,0,0.03,0
					c2.09-0.43,5.16-0.87,9.54-0.91h0.04c2.05-0.15,5.17-0.35,8.98-0.5c2.9-0.11,7.38-0.14,11.73-0.12l1.31,1.22l1.34,1.26L99,35.5
					l-5.06,4.07l-1.34,1.08l-4.9,3.95l4.9,3.77l1.34,1.03L103.11,56.46z"/>
				<path fill="#FFFFFF" stroke="#000000" stroke-miterlimit="10" d="M60.97,29.79c-0.47,0.19-1.09,0.42-1.37,0.57
					c0.09-0.07,0.19-0.13,0.28-0.18c0.16-0.09,0.32-0.18,0.47-0.25c0.08-0.02,0.15-0.04,0.21-0.05
					C60.69,29.85,60.83,29.82,60.97,29.79z"/>
				
					<linearGradient id="SVGID_00000019636812381985423960000002473942754559653806_" gradientUnits="userSpaceOnUse" x1="17.83" y1="89.22" x2="111.38" y2="89.22">
					<stop  offset="0" style="stop-color:#000000"/>
					<stop  offset="1" style="stop-color:#0002E9"/>
				</linearGradient>
				<path fill="url(#SVGID_00000019636812381985423960000002473942754559653806_)" stroke="#000000" stroke-miterlimit="10" d="
					M93.94,86.39l-1.34-0.88l-9.1-6.01l9.1-10.69V68.5H70.5c-1.01-0.1-3.07-0.47-5-2c-0.85-0.68-1.45-1.4-1.86-2
					c-0.3-0.71-0.71-1.74-1.14-3c-1.17-3.42-1.62-5.99-2-8c-2.13-11.24-3-15-3-15c-0.5-2.16-1-4.15,0-6
					c0.08-0.16,0.18-0.31,0.27-0.45c0.01-0.01,0.01-0.01,0.02-0.02c0.1-0.15,0.21-0.29,0.33-0.42c0.11-0.14,0.23-0.26,0.35-0.38
					c0.13-0.12,0.25-0.24,0.38-0.34c0.21-0.18,0.43-0.33,0.64-0.47c0.01-0.01,0.03-0.02,0.05-0.03c0.02-0.01,0.04-0.03,0.06-0.03
					c0.09-0.07,0.19-0.13,0.28-0.18c0.16-0.09,0.32-0.18,0.47-0.25c-0.47,0.11-1.29,0.3-2.44,0.48c-1.35,0.21-3.15,0.41-5.35,0.47
					c-0.61,0.02-1.41,0.03-2.35,0.02c-0.06,0-0.13-0.01-0.18-0.04C57.96,36.51,57.04,48.19,59,57c1,5,0,10-2,14c-6,7-11,14-16,22
					l-12,24c-3.97,9.93-5.97,20.84-11.17,30.08c0.69,0.1,1.56,0.24,2.67,0.42c5.79,0.94,5.56,1.05,6,1c4.26-0.51,5.32-8.97,12-25
					c0,0,4.64-12.22,10.41-15.86c2.88-1.82,5.59-2.14,5.59-2.14c1.17-0.14,2.27-0.09,4,0c1.74,0.09,3.19,0.25,4.22,0.38h31.22
					c2.99,0.06,5.98,0.04,8.97-0.02l8.47-7.95L93.94,86.39z M86.7,73c0.55,0,1,0.45,1,1s-0.45,1-1,1s-1-0.45-1-1S86.15,73,86.7,73z
					 M69.5,96.5c-5.05,2.86-12.2,1.3-15-4c-2.93-5.55,0.19-12.78,6-15c5.32-2.03,11.93,0.51,14,6C76.37,88.48,73.83,94.05,69.5,96.5
					z M98,97.16c0,0.62-0.7,1.12-1.55,1.12l-2.51-0.02l-1.34-0.01l-2.07-0.01c-0.85,0-1.53-0.5-1.53-1.12S89.69,96,90.54,96h5.92
					c0.85,0,1.54,0.5,1.54,1.12V97.16z"/>
				
					<linearGradient id="SVGID_00000030485794841774336250000009557813334643628186_" gradientUnits="userSpaceOnUse" x1="3.135" y1="86.9162" x2="59.3923" y2="86.9162">
					<stop  offset="0" style="stop-color:#FFFFFF"/>
					<stop  offset="0.0469" style="stop-color:#E5E5E5"/>
					<stop  offset="0.1513" style="stop-color:#B0B0B0"/>
					<stop  offset="0.2601" style="stop-color:#818181"/>
					<stop  offset="0.3708" style="stop-color:#595959"/>
					<stop  offset="0.484" style="stop-color:#393939"/>
					<stop  offset="0.6005" style="stop-color:#202020"/>
					<stop  offset="0.7217" style="stop-color:#0E0E0E"/>
					<stop  offset="0.8505" style="stop-color:#030303"/>
					<stop  offset="1" style="stop-color:#000000"/>
				</linearGradient>
				<path fill="url(#SVGID_00000030485794841774336250000009557813334643628186_)" stroke="#000000" stroke-miterlimit="10" d="
					M57,71c-6,7-11,14-16,22l-12,24c-3.97,9.93-5.97,20.84-11.17,30.08c-2.28-0.35-2.61-0.36-3.33-0.58c-4.5-1.37-7.11-5.44-8-7
					c-1.03-1.8-2.21-4.47-3-14c0,0-0.86-10.32,0.06-24.62c0.14-2.11,0.34-3.75,0.4-4.23c0.18-1.33,0.38-2.59,0.6-3.77l3-16
					c1.01-4.7,2.31-9.72,4-15c3.17-9.87,6.98-18.41,10.76-25.54c0.15-0.28,0.44-0.46,0.77-0.46c1.36,0,2.47-1.11,2.47-2.47v-1.4
					c0-0.08,0.04-0.15,0.35-0.3l4.97-2.49c1.54-0.51,3.06-1.01,4.6-1.52c2.44-0.43,4.51-0.68,6.08-0.82c1.89-0.17,2.87-0.17,4,0
					c1.53,0.24,2.76,0.73,3.65,1.17c0.22,0.11,0.35,0.34,0.35,0.58v1.61c0,0.15,0.05,0.29,0.14,0.4c0.08,0.1,0.19,0.18,0.31,0.21
					c0.01,0,0.01,0.01,0.02,0.01C57.96,36.51,57.04,48.19,59,57C60,62,59,67,57,71z"/>
				
					<linearGradient id="SVGID_00000178193495025793659970000008987331397666456479_" gradientUnits="userSpaceOnUse" x1="53.3825" y1="87.3583" x2="75.1224" y2="87.3583">
					<stop  offset="0" style="stop-color:#000000"/>
					<stop  offset="1" style="stop-color:#0002E9"/>
				</linearGradient>
				<path fill="url(#SVGID_00000178193495025793659970000008987331397666456479_)" stroke="#000000" stroke-miterlimit="10" d="
					M69.5,96.5c-5.05,2.86-12.2,1.3-15-4c-2.93-5.55,0.19-12.78,6-15c5.32-2.03,11.93,0.51,14,6C76.37,88.48,73.83,94.05,69.5,96.5z
					"/>
				<circle fill="#FFFFFF" stroke="#000000" stroke-miterlimit="10" cx="86.7" cy="74" r="1"/>
				<path fill="#FFFFFF" stroke="#000000" stroke-miterlimit="10" d="M92.6,96v2.25l-2.07-0.01c-0.85,0-1.53-0.5-1.53-1.12
					S89.69,96,90.54,96H92.6z"/>
			</g>
			<g>
				<path fill="#FFFFFF" stroke="#000000" stroke-miterlimit="10" d="M93.94,105.88"/>
			</g>
		</g>
		<path fill="none" stroke="#000000" stroke-width="0.75" stroke-miterlimit="10" d="M17.83,147.08c-0.04,0.07-0.07,0.13-0.11,0.2"
			/>
		<path fill="none" stroke="#000000" stroke-width="0.75" stroke-miterlimit="10" d="M50.03,30.86c-0.01,0-0.01-0.01-0.02-0.01
			c-0.1-0.08-0.21-0.15-0.31-0.21c-0.07-0.05-0.13-0.1-0.2-0.14"/>
		<g>
			<g>
				<path fill="#FFFFFF" stroke="#000000" stroke-miterlimit="10" d="M98,97.12v0.04c0,0.62-0.7,1.12-1.55,1.12l-2.51-0.02V96h2.52
					C97.31,96,98,96.5,98,97.12z"/>
			</g>
			<g>
				<path fill="#FFFFFF" stroke="#000000" stroke-miterlimit="10" d="M94.36,105.88"/>
			</g>
		</g>
		<path fill="none" stroke="#000000" stroke-width="0.75" stroke-miterlimit="10" d="M54.5,72.5"/>
		
			<linearGradient id="SVGID_00000018920231712288981250000005620125252768869800_" gradientUnits="userSpaceOnUse" x1="31.5" y1="71" x2="41.5" y2="71">
			<stop  offset="0" style="stop-color:#000000"/>
			<stop  offset="1" style="stop-color:#0002E9"/>
		</linearGradient>
		<path fill="url(#SVGID_00000018920231712288981250000005620125252768869800_)" stroke="#000000" stroke-miterlimit="10" d="
			M41.5,75.5c-0.37,0.35-2.18,2-5,2c-0.51,0-2.96-0.05-5-2c0.33-2.33,0.67-4.67,1-7c0.48-0.41,1.21-1.08,2-2c1.11-1.29,1.4-2,2-2
			c0.6,0,0.89,0.71,2,2c0.79,0.92,1.52,1.59,2,2C40.83,70.83,41.17,73.17,41.5,75.5z"/>
		
			<linearGradient id="SVGID_00000059999305751300471700000017748727669565588872_" gradientUnits="userSpaceOnUse" x1="31.3582" y1="53.9986" x2="41.3531" y2="53.9986">
			<stop  offset="0" style="stop-color:#000000"/>
			<stop  offset="1" style="stop-color:#0002E9"/>
		</linearGradient>
		<path fill="url(#SVGID_00000059999305751300471700000017748727669565588872_)" stroke="#000000" stroke-miterlimit="10" d="
			M31.36,49.66c0.36-0.36,2.11-2.07,4.93-2.16c0.51-0.02,2.96-0.04,5.06,1.84c-0.26,2.34-0.52,4.69-0.78,7.03
			c-0.47,0.43-1.18,1.12-1.93,2.06c-1.07,1.33-1.33,2.04-1.93,2.06c-0.6,0.02-0.91-0.68-2.06-1.93c-0.82-0.89-1.57-1.54-2.06-1.93
			C32.17,54.31,31.77,51.98,31.36,49.66z"/>
		
			<linearGradient id="SVGID_00000003791859889687998590000001789167168638069663_" gradientUnits="userSpaceOnUse" x1="38.429" y1="62.4217" x2="51.429" y2="62.4217">
			<stop  offset="0" style="stop-color:#000000"/>
			<stop  offset="1" style="stop-color:#0002E9"/>
		</linearGradient>
		<path fill="url(#SVGID_00000003791859889687998590000001789167168638069663_)" stroke="#000000" stroke-miterlimit="10" d="
			M49.43,57.42c0.35,0.37,2,2.18,2,5c0,0.51-0.05,2.96-2,5c-2.33-0.33-4.67-0.66-7-1c-0.41-0.48-1.08-1.21-2-2c-1.3-1.11-2-1.39-2-2
			c0-0.6,0.7-0.89,2-2c0.92-0.79,1.59-1.52,2-2C44.76,58.09,47.09,57.76,49.43,57.42z"/>
		
			<linearGradient id="SVGID_00000097475029648695255630000017549629577849437824_" gradientUnits="userSpaceOnUse" x1="21.4291" y1="62.581" x2="34.426" y2="62.581">
			<stop  offset="0" style="stop-color:#000000"/>
			<stop  offset="1" style="stop-color:#0002E9"/>
		</linearGradient>
		<path fill="url(#SVGID_00000097475029648695255630000017549629577849437824_)" stroke="#000000" stroke-miterlimit="10" d="
			M23.59,67.58c-0.36-0.36-2.07-2.11-2.16-4.93c-0.02-0.51-0.04-2.96,1.84-5.06c2.34,0.26,4.69,0.51,7.03,0.77
			c0.43,0.47,1.12,1.18,2.06,1.93c1.33,1.06,2.04,1.33,2.06,1.93c0.02,0.6-0.68,0.91-1.93,2.06c-0.89,0.82-1.54,1.57-1.93,2.06
			C28.24,66.76,25.92,67.17,23.59,67.58z"/>
		
			<linearGradient id="SVGID_00000008846031824219671700000006469132482476414636_" gradientUnits="userSpaceOnUse" x1="48.3637" y1="42.3932" x2="53.4659" y2="42.3932">
			<stop  offset="0" style="stop-color:#000000"/>
			<stop  offset="1" style="stop-color:#0002E9"/>
		</linearGradient>
		
			<path fill="url(#SVGID_00000008846031824219671700000006469132482476414636_)" stroke="#000000" stroke-width="0.75" stroke-miterlimit="10" d="
			M52.55,39.53c0.31,1.67,0.61,3.34,0.92,5.02c-0.11,0.93-0.81,1.7-1.72,1.89c-0.88,0.19-1.8-0.19-2.29-0.95
			c-0.47-1.62-0.76-3-0.94-4.02c-0.19-1.09-0.22-1.54,0.03-2c0.5-0.9,1.93-1.48,3.02-0.95C52.14,38.79,52.43,39.29,52.55,39.53z"/>
		<path fill="none" stroke="#000000" stroke-width="0.75" stroke-miterlimit="10" d="M60.35,29.93c0.56-0.27,1-0.4,1.15-0.43
			c0.01,0,0.13-0.02,0.13,0c0,0.03-0.27,0.14-0.63,0.29"/>
		<path fill="none" stroke="#000000" stroke-width="0.75" stroke-miterlimit="10" d="M59.5,30.5c-0.07-0.01-0.06-0.04-0.01-0.08"/>
		<path fill="none" stroke="#000000" stroke-width="0.75" stroke-miterlimit="10" d="M69.5,96.5c-5.05,2.86-12.2,1.3-15-4
			c-2.93-5.55,0.19-12.78,6-15c5.32-2.03,11.93,0.51,14,6C76.37,88.48,73.83,94.05,69.5,96.5z"/>
		
			<linearGradient id="SVGID_00000040567100949561815190000006970102897344536194_" gradientUnits="userSpaceOnUse" x1="57.5086" y1="87.3586" x2="71" y2="87.3586">
			<stop  offset="0" style="stop-color:#FFFFFF"/>
			<stop  offset="0.1032" style="stop-color:#CFCFCF"/>
			<stop  offset="0.235" style="stop-color:#999999"/>
			<stop  offset="0.3681" style="stop-color:#6A6A6A"/>
			<stop  offset="0.4999" style="stop-color:#444444"/>
			<stop  offset="0.6299" style="stop-color:#262626"/>
			<stop  offset="0.7576" style="stop-color:#111111"/>
			<stop  offset="0.8822" style="stop-color:#040404"/>
			<stop  offset="1" style="stop-color:#000000"/>
		</linearGradient>
		
			<path fill="url(#SVGID_00000040567100949561815190000006970102897344536194_)" stroke="#000000" stroke-width="0.75" stroke-miterlimit="10" d="
			M70.61,84.96c1.16,3.09-0.42,6.54-3.1,8.07c-3.13,1.78-7.57,0.81-9.31-2.48c-1.82-3.44,0.12-7.93,3.72-9.31
			C65.22,79.98,69.33,81.55,70.61,84.96z"/>
		<g>
			<path stroke="#000000" stroke-width="0.25" stroke-miterlimit="10" d="M98,97.12v0.04c0,0.62-0.7,1.12-1.55,1.12l-2.51-0.02
				l-1.34-0.01l-2.07-0.01c-0.85,0-1.53-0.5-1.53-1.12S89.69,96,90.54,96h5.92C97.31,96,98,96.5,98,97.12z"/>
		</g>
		<g>
			<circle stroke="#000000" stroke-width="0.25" stroke-miterlimit="10" cx="86.7" cy="74" r="1"/>
		</g>
		<path fill="none" stroke="#000000" stroke-width="0.75" stroke-miterlimit="10" d="M49.5,30.5c-8.33,1.67-16.67,3.33-25,5"/>
		<g>
			<g>
				<path d="M26.62,35.13c1.93,0,1.93-3,0-3C24.69,32.13,24.68,35.13,26.62,35.13L26.62,35.13z"/>
			</g>
		</g>
		<g>
			<g>
				<path d="M27.89,34.88c3.04-0.47,5.88-1.89,8.95-2.2c-0.13-0.98-0.27-1.96-0.4-2.95c-0.68,0.15-1.35,0.29-2.03,0.44
					c-1.62,0.35-1.3,3.14,0.4,2.95c4.53-0.51,8.92-2.02,13.49-2.17c1.38-0.04,2.18-2.12,0.76-2.8c-1.93-0.91-4.02-1.42-6.17-1.27
					c-2.31,0.16-4.61,0.71-6.89,1.1c-1.65,0.28-1.29,3.12,0.4,2.95c1.45-0.15,2.64-0.95,4.06-1.16c1.67-0.25,1.28-3.05-0.4-2.95
					c-1.18,0.07-2.43,0.18-3.57,0.52c-0.55,0.17-1,0.45-1.51,0.69c-0.53,0.25-1.14,0.34-1.71,0.48c-2.46,0.63-4.84,1.56-7.09,2.72
					c-1.72,0.88-0.2,3.47,1.51,2.59c2.03-1.04,4.16-1.85,6.38-2.42c1.03-0.26,1.9-0.58,2.85-1.03c0.94-0.44,2.12-0.5,3.14-0.56
					c-0.13-0.98-0.27-1.96-0.4-2.95c-1.14,0.17-2.13,0.94-3.26,1.05c0.13,0.98,0.27,1.96,0.4,2.95c3.56-0.61,7.3-1.77,10.74-0.14
					c0.25-0.93,0.5-1.86,0.76-2.8c-4.59,0.15-8.96,1.65-13.49,2.17c0.13,0.98,0.27,1.96,0.4,2.95c0.68-0.15,1.35-0.29,2.03-0.44
					c1.62-0.35,1.3-3.11-0.4-2.95c-3.36,0.33-6.43,1.8-9.74,2.3c-0.81,0.12-1.24,1.13-1.05,1.85C26.27,34.69,27.09,35,27.89,34.88
					L27.89,34.88z"/>
			</g>
		</g>
		<g>
			<g>
				<path d="M26.87,35.38c1.93,0,1.93-3,0-3C24.94,32.38,24.94,35.38,26.87,35.38L26.87,35.38z"/>
			</g>
		</g>
		<g>
			<g>
				<path d="M26.78,35.45c1.93,0,1.93-3,0-3C24.85,32.45,24.84,35.45,26.78,35.45L26.78,35.45z"/>
			</g>
		</g>
		<g opacity="0.38">
			<line fill="none" stroke="#FFFFFF" stroke-width="0.25" stroke-miterlimit="10" x1="26" y1="33" x2="48.36" y2="28.45"/>
		</g>
	</g>
	<g>
		<g>
			<path fill="#FFFFFF" d="M117.59,54.52c1.93,0,1.93-3,0-3C115.65,51.52,115.65,54.52,117.59,54.52L117.59,54.52z"/>
		</g>
	</g>
	<g>
		<g>
			<path fill="#FFFFFF" d="M117.55,54.64c1.93,0,1.93-3,0-3C115.61,51.64,115.61,54.64,117.55,54.64L117.55,54.64z"/>
		</g>
	</g>
	<g>
		<g>
			<path fill="#FFFFFF" d="M117.75,54.32c1.93,0,1.93-3,0-3C115.82,51.32,115.82,54.32,117.75,54.32L117.75,54.32z"/>
		</g>
	</g>
	<g>
		<g>
			<path fill="#FFFFFF" d="M117.96,54.07c1.93,0,1.93-3,0-3C116.03,51.07,116.03,54.07,117.96,54.07L117.96,54.07z"/>
		</g>
	</g>
	<g>
		<g>
			<path fill="#FFFFFF" d="M118.17,53.81c1.93,0,1.93-3,0-3C116.24,50.81,116.23,53.81,118.17,53.81L118.17,53.81z"/>
		</g>
	</g>
	<g>
		<g>
			<path fill="#FFFFFF" d="M118.03,53.99c1.93,0,1.93-3,0-3C116.1,50.99,116.1,53.99,118.03,53.99L118.03,53.99z"/>
		</g>
	</g>
	<g>
		<g>
			<path fill="#FFFFFF" d="M117.79,54.36c1.93,0,1.93-3,0-3C115.86,51.36,115.86,54.36,117.79,54.36L117.79,54.36z"/>
		</g>
	</g>
	<g>
		<g>
			<path fill="#FFFFFF" d="M118.01,54.05c1.93,0,1.93-3,0-3C116.08,51.05,116.07,54.05,118.01,54.05L118.01,54.05z"/>
		</g>
	</g>
	<g>
		<g>
			<g>
				<g>
					<circle fill="#FFFFFF" stroke="#000000" stroke-miterlimit="10" cx="148.4" cy="51.8" r="1"/>
					<circle fill="#FFFFFF" stroke="#000000" stroke-miterlimit="10" cx="150" cy="49" r="1"/>
					<circle fill="#FFFFFF" stroke="#000000" stroke-miterlimit="10" cx="151.6" cy="51.8" r="1"/>
					<path fill="#FFFFFF" stroke="#000000" stroke-miterlimit="10" d="M152.6,48.28v1.44c-0.18-0.19-0.3-0.44-0.3-0.72
						C152.3,48.72,152.42,48.47,152.6,48.28z"/>
					<path fill="none" stroke="#000000" stroke-miterlimit="10" d="M152.6,3.26"/>
					<path fill="none" stroke="#000000" stroke-miterlimit="10" d="M153.94,3.27"/>
				</g>
			</g>
			<g>
				<g>
					<g>
						
							<linearGradient id="SVGID_00000127727033718998921720000017500965577831038348_" gradientUnits="userSpaceOnUse" x1="147.5" y1="23.3559" x2="189.8922" y2="23.3559">
							<stop  offset="0" style="stop-color:#000000"/>
							<stop  offset="1" style="stop-color:#FFFFFF"/>
						</linearGradient>
						<path fill="url(#SVGID_00000127727033718998921720000017500965577831038348_)" stroke="#000000" stroke-miterlimit="10" d="
							M189.5,13.5c-0.94,3.6-2.72,11.82-5.2,22.91c-0.27,0.7-0.53,1.4-0.8,2.1c-0.68,1.18-1.91,2.89-3.99,3.99c-1.9,1.01-3.57,1-8,1
							h-17.56v-1.27l9.17-10.77l-9.17-7.06c-2.15-1.63-4.29-3.27-6.44-4.9c2.15-1.64,4.29-3.29,6.44-4.93
							c1.69-1.36,3.37-2.71,5.06-4.07c-1.69-1.5-3.37-3.01-5.06-4.51c-0.81-0.83-1.63-1.66-2.44-2.49c0.95-0.08,1.91-0.15,2.86-0.23
							c4.58-0.1,9.38-0.08,14.38,0.11c3.08,0.11,6.07,0.28,8.98,0.5h0.05c3.94,0.03,6.83,0.39,8.89,0.78l0.84,0.84
							c0.58,0.54,1.49,1.53,2,3C190.26,10.67,189.72,12.65,189.5,13.5z"/>
					</g>
					
						<linearGradient id="SVGID_00000038398626805835018750000013238381036975675010_" gradientUnits="userSpaceOnUse" x1="143.5" y1="64.0868" x2="229.29" y2="64.0868">
						<stop  offset="0" style="stop-color:#000000"/>
						<stop  offset="1" style="stop-color:#0002E9"/>
					</linearGradient>
					<path fill="url(#SVGID_00000038398626805835018750000013238381036975675010_)" stroke="#000000" stroke-miterlimit="10" d="
						M225.5,115.5c-1.85-3.66-2.64-6.68-3-8c-0.3-1.11-2.59-9.6-5-16c-1.17-3.11-3.44-7.74-8-17c-1.68-3.41-2.52-5.12-3-6
						c-3.6-6.57-6.4-9.64-11-16c-4.95-6.85-7.43-10.28-8-12c-1.32-3.97-0.6-5.54,4-27c0.36-1.7,1.12-5.23,4-7
						c0.43-0.27,0.87-0.46,1.28-0.61c-0.39,0-0.74,0-1.04-0.01c-2.2-0.06-4-0.26-5.35-0.47c-1.35-0.21-2.25-0.43-2.65-0.53
						c-0.33-0.07-0.69-0.15-1.08-0.22l0.84,0.84c0.58,0.54,1.49,1.53,2,3c0.76,2.17,0.22,4.15,0,5c-0.91,3.5-2.62,11.37-5,22
						c-0.33,1-0.67,2-1,3c-0.68,1.18-1.91,2.9-4,4c-1.9,1.01-3.57,1-8,1h-18.64l-0.26,0.31l-9.1,10.69l9.1,6.01l1.34,0.88
						l17.44,11.52l-8.08,7.94c6.65-0.14,13.3-0.45,19.95-0.37c0.72,0.01,1.43-0.09,2.14-0.24c1.65-0.33,4.17-0.2,7.11,0.26
						c1.25,0.19,4.88,0.94,9,5c3.76,3.71,4.91,7.21,9,19c4.67,13.46,6.5,18.56,10,19c0.72,0.09,2.81-0.27,7-1
						c0.67-0.12,1.27-0.22,1.79-0.31C228.39,120.82,226.51,117.51,225.5,115.5z M148.4,52.8c-0.55,0-1-0.45-1-1s0.45-1,1-1
						c0.55,0,1,0.45,1,1S148.95,52.8,148.4,52.8z M149,49c0-0.55,0.45-1,1-1s1,0.45,1,1s-0.45,1-1,1S149,49.55,149,49z M151.6,52.8
						c-0.55,0-1-0.45-1-1s0.45-1,1-1c0.55,0,1,0.45,1,1S152.15,52.8,151.6,52.8z M153.3,50c-0.27,0-0.52-0.11-0.7-0.28
						c-0.18-0.19-0.3-0.44-0.3-0.72c0-0.28,0.12-0.53,0.3-0.72c0.18-0.17,0.43-0.28,0.7-0.28c0.24,0,0.47,0.09,0.64,0.23
						c0.22,0.19,0.36,0.46,0.36,0.77s-0.14,0.58-0.36,0.77C153.77,49.91,153.54,50,153.3,50z M155,52.8c-0.55,0-1-0.45-1-1
						s0.45-1,1-1s1,0.45,1,1S155.55,52.8,155,52.8z M155.7,49c0-0.55,0.45-1,1-1s1,0.45,1,1s-0.45,1-1,1S155.7,49.55,155.7,49z
						 M158.4,52.8c-0.55,0-1-0.45-1-1s0.45-1,1-1c0.55,0,1,0.45,1,1S158.95,52.8,158.4,52.8z M160,50c-0.55,0-1-0.45-1-1s0.45-1,1-1
						s1,0.45,1,1S160.55,50,160,50z M187.5,71.5c-5.05,2.86-12.2,1.3-15-4c-2.93-5.55,0.19-12.78,6-15c5.32-2.03,11.93,0.51,14,6
						C194.37,63.48,191.83,69.05,187.5,71.5z"/>
					<path fill="#FFFFFF" stroke="#000000" stroke-miterlimit="10" d="M154.3,49c0,0.31-0.14,0.58-0.36,0.77v-1.54
						C154.16,48.42,154.3,48.69,154.3,49z"/>
					<circle fill="#FFFFFF" stroke="#000000" stroke-miterlimit="10" cx="155" cy="51.8" r="1"/>
					<circle fill="#FFFFFF" stroke="#000000" stroke-miterlimit="10" cx="156.7" cy="49" r="1"/>
					<circle fill="#FFFFFF" stroke="#000000" stroke-miterlimit="10" cx="158.4" cy="51.8" r="1"/>
					<circle fill="#FFFFFF" stroke="#000000" stroke-miterlimit="10" cx="160" cy="49" r="1"/>
					
						<linearGradient id="SVGID_00000048492977992917606670000007024114309524318126_" gradientUnits="userSpaceOnUse" x1="171.3825" y1="62.3583" x2="193.1224" y2="62.3583">
						<stop  offset="0" style="stop-color:#000000"/>
						<stop  offset="1" style="stop-color:#0002E9"/>
					</linearGradient>
					<path fill="url(#SVGID_00000048492977992917606670000007024114309524318126_)" stroke="#000000" stroke-miterlimit="10" d="
						M187.5,71.5c-5.05,2.86-12.2,1.3-15-4c-2.93-5.55,0.19-12.78,6-15c5.32-2.03,11.93,0.51,14,6
						C194.37,63.48,191.83,69.05,187.5,71.5z"/>
					
						<linearGradient id="SVGID_00000076567549428229752980000015736959991528443798_" gradientUnits="userSpaceOnUse" x1="186.9111" y1="61.9712" x2="245.3605" y2="61.9712">
						<stop  offset="0" style="stop-color:#FFFFFF"/>
						<stop  offset="0.0469" style="stop-color:#E5E5E5"/>
						<stop  offset="0.1513" style="stop-color:#B0B0B0"/>
						<stop  offset="0.2601" style="stop-color:#818181"/>
						<stop  offset="0.3708" style="stop-color:#595959"/>
						<stop  offset="0.484" style="stop-color:#393939"/>
						<stop  offset="0.6005" style="stop-color:#202020"/>
						<stop  offset="0.7217" style="stop-color:#0E0E0E"/>
						<stop  offset="0.8505" style="stop-color:#030303"/>
						<stop  offset="1" style="stop-color:#000000"/>
					</linearGradient>
					<path fill="url(#SVGID_00000076567549428229752980000015736959991528443798_)" stroke="#000000" stroke-miterlimit="10" d="
						M244.74,98.88c-0.1,0.64-0.46,2.59-1,5c-0.41,1.85-0.61,2.77-1,4c-0.2,0.67-0.89,2.87-2,5c-1.07,2.06-3.51,6.76-8.24,8.62
						c-0.46,0.18-1.44,0.37-3.21,0.69c-0.9-1.37-2.78-4.68-3.79-6.69c-1.85-3.66-2.64-6.68-3-8c-0.3-1.11-2.59-9.6-5-16
						c-1.17-3.11-3.44-7.74-8-17c-1.68-3.41-2.52-5.12-3-6c-3.6-6.57-6.4-9.64-11-16c-4.95-6.85-7.43-10.28-8-12
						c-1.32-3.97-0.6-5.54,4-27c0.36-1.7,1.12-5.23,4-7c0.43-0.27,0.87-0.46,1.28-0.61h0.01c0.4,0.01,0.83,0.02,1.31,0.01
						c0.26-0.01,0.47-0.16,0.57-0.37c0.05-0.09,0.07-0.19,0.07-0.29V3.63c0-0.24,0.14-0.47,0.36-0.58c0.01-0.01,0.03-0.01,0.04-0.02
						c0.88-0.43,2.1-0.91,3.6-1.15c1.13-0.17,2.12-0.17,4,0c1.58,0.14,3.64,0.39,6.09,0.82c1.53,0.51,3.05,1.01,4.59,1.52l4.97,2.49
						c0.31,0.15,0.35,0.22,0.35,0.3v1.4c0,1.37,1.12,2.49,2.5,2.47c0.32,0,0.6,0.18,0.74,0.46c3.78,7.13,7.6,15.66,10.76,25.54
						c1.69,5.28,3,10.3,4,15l3,16c0.23,1.18,0.43,2.44,0.6,3.77c0.25,1.95,0.35,3.45,0.4,4.23
						C245.27,84.08,245.82,92.57,244.74,98.88z"/>
				</g>
			</g>
			<path fill="none" stroke="#000000" stroke-width="0.75" stroke-miterlimit="10" d="M229.5,122.5c-0.06-0.09-0.13-0.19-0.21-0.31"
				/>
			<path fill="none" stroke="#000000" stroke-width="0.75" stroke-miterlimit="10" d="M196.78,5.89L196.78,5.89
				c0.67-0.24,1.28-0.34,1.72-0.39"/>
			<path fill="none" stroke="#000000" stroke-width="0.75" stroke-miterlimit="10" d="M114.5,47.5"/>
			
				<linearGradient id="SVGID_00000140722867340708604610000011417453343265708956_" gradientUnits="userSpaceOnUse" x1="217.4942" y1="37.34" x2="229.8784" y2="37.34">
				<stop  offset="0" style="stop-color:#000000"/>
				<stop  offset="1" style="stop-color:#0002E9"/>
			</linearGradient>
			
				<path fill="url(#SVGID_00000140722867340708604610000011417453343265708956_)" stroke="#000000" stroke-width="0.75" stroke-miterlimit="10" d="
				M217.5,37.5c-0.09-1.99,0.87-3.97,2.5-5.16c2.17-1.58,5.28-1.59,7.5,0.16c2.05,1.62,2.95,4.45,2,7c-0.95,2.55-3.47,4.09-6,4
				C220.22,43.38,217.64,40.55,217.5,37.5z"/>
			<g>
				
					<linearGradient id="SVGID_00000161611567590967616870000018123687836032366267_" gradientUnits="userSpaceOnUse" x1="221.022" y1="37.1644" x2="226.6991" y2="37.1644">
					<stop  offset="0" style="stop-color:#000000"/>
					<stop  offset="1" style="stop-color:#0002E9"/>
				</linearGradient>
				
					<path fill="url(#SVGID_00000161611567590967616870000018123687836032366267_)" stroke="#BC5C06" stroke-width="0.75" stroke-miterlimit="10" d="
					M221.1,36.46c0.26-1.12,1.11-1.76,1.4-1.96c0.99-0.53,2.16-0.55,3,0c1.2,0.79,1.63,2.67,0.68,4.25
					c-0.75,1.16-2.08,1.71-3.23,1.39C221.41,39.71,220.78,37.83,221.1,36.46z"/>
			</g>
			
				<linearGradient id="SVGID_00000177443835515283230460000002971299680105840313_" gradientUnits="userSpaceOnUse" x1="190.7921" y1="37.5318" x2="202.8969" y2="37.5318">
				<stop  offset="0" style="stop-color:#000000"/>
				<stop  offset="1" style="stop-color:#0002E9"/>
			</linearGradient>
			
				<path fill="url(#SVGID_00000177443835515283230460000002971299680105840313_)" stroke="#000000" stroke-width="0.75" stroke-miterlimit="10" d="
				M191.5,34.5c1.15-2.08,3.57-3.3,6-3c2.27,0.28,4.2,1.82,5,4c0.96,2.56,0.12,5.43-2,7c-2.2,1.62-5.07,1.33-7,0
				C191.01,40.78,189.99,37.23,191.5,34.5z"/>
			
				<linearGradient id="SVGID_00000013875139063617575780000002446032718877640585_" gradientUnits="userSpaceOnUse" x1="204.1132" y1="50.6922" x2="216.6081" y2="50.6922">
				<stop  offset="0" style="stop-color:#000000"/>
				<stop  offset="1" style="stop-color:#0002E9"/>
			</linearGradient>
			
				<path fill="url(#SVGID_00000013875139063617575780000002446032718877640585_)" stroke="#000000" stroke-width="0.75" stroke-miterlimit="10" d="
				M210.5,44.5c2.82,0.07,5.44,2.08,6,5c0.56,2.94-1.12,5.93-4,7c-0.46,0.16-2.83,0.93-5.12-0.3c-2.56-1.38-4-4.73-2.88-7.7
				C205.43,46.04,207.89,44.44,210.5,44.5z"/>
			
				<linearGradient id="SVGID_00000109001202596878514240000005111409092472468620_" gradientUnits="userSpaceOnUse" x1="204.3571" y1="23.6759" x2="216.2406" y2="23.6759">
				<stop  offset="0" style="stop-color:#000000"/>
				<stop  offset="1" style="stop-color:#0002E9"/>
			</linearGradient>
			
				<path fill="url(#SVGID_00000109001202596878514240000005111409092472468620_)" stroke="#000000" stroke-width="0.75" stroke-miterlimit="10" d="
				M210.5,17.5c2.12,0.03,4.05,1.29,5,3c1.7,3.06,0.37,7.7-3,9c-2.6,1-5.64-0.27-7-2c-0.04-0.04-0.06-0.08-0.09-0.11
				c-0.31-0.5-1.45-2.48-0.91-4.89C205.09,19.86,207.53,17.46,210.5,17.5z"/>
			<g>
				
					<linearGradient id="SVGID_00000012452345614327168670000017728145177738789790_" gradientUnits="userSpaceOnUse" x1="207.5" y1="23" x2="213.5" y2="23">
					<stop  offset="0" style="stop-color:#000000"/>
					<stop  offset="1" style="stop-color:#0002E9"/>
				</linearGradient>
				
					<polygon fill="url(#SVGID_00000012452345614327168670000017728145177738789790_)" stroke="#005315" stroke-width="0.75" stroke-miterlimit="10" points="
					213.5,25.5 210.35,20.5 207.5,25.5 				"/>
			</g>
			<g>
				
					<linearGradient id="SVGID_00000069355606233254943190000012956319996648219064_" gradientUnits="userSpaceOnUse" x1="207.5441" y1="50.5" x2="213.4558" y2="50.5">
					<stop  offset="0" style="stop-color:#000000"/>
					<stop  offset="0.3382" style="stop-color:#000002"/>
					<stop  offset="0.4776" style="stop-color:#000009"/>
					<stop  offset="0.5805" style="stop-color:#000015"/>
					<stop  offset="0.6654" style="stop-color:#000027"/>
					<stop  offset="0.7392" style="stop-color:#00013E"/>
					<stop  offset="0.8053" style="stop-color:#00015A"/>
					<stop  offset="0.8656" style="stop-color:#00017C"/>
					<stop  offset="0.9215" style="stop-color:#0001A3"/>
					<stop  offset="0.9717" style="stop-color:#0002CD"/>
					<stop  offset="1" style="stop-color:#0002E9"/>
				</linearGradient>
				
					<line fill="url(#SVGID_00000069355606233254943190000012956319996648219064_)" stroke="#831399" stroke-width="0.75" stroke-miterlimit="10" x1="213.46" y1="47.46" x2="207.54" y2="53.54"/>
				
					<linearGradient id="SVGID_00000105413724186458651160000003414817734841160607_" gradientUnits="userSpaceOnUse" x1="207.6541" y1="50.5" x2="213.3459" y2="50.5">
					<stop  offset="0" style="stop-color:#000000"/>
					<stop  offset="0.3382" style="stop-color:#000002"/>
					<stop  offset="0.4776" style="stop-color:#000009"/>
					<stop  offset="0.5805" style="stop-color:#000015"/>
					<stop  offset="0.6654" style="stop-color:#000027"/>
					<stop  offset="0.7392" style="stop-color:#00013E"/>
					<stop  offset="0.8053" style="stop-color:#00015A"/>
					<stop  offset="0.8656" style="stop-color:#00017C"/>
					<stop  offset="0.9215" style="stop-color:#0001A3"/>
					<stop  offset="0.9717" style="stop-color:#0002CD"/>
					<stop  offset="1" style="stop-color:#0002E9"/>
				</linearGradient>
				
					<line fill="url(#SVGID_00000105413724186458651160000003414817734841160607_)" stroke="#831399" stroke-width="0.75" stroke-miterlimit="10" x1="207.65" y1="47.35" x2="213.35" y2="53.65"/>
			</g>
			<g>
				
					<rect x="194.5" y="35.5" fill="none" stroke="#990022" stroke-width="0.75" stroke-miterlimit="10" width="4.78" height="4.39"/>
			</g>
			
				<linearGradient id="SVGID_00000000914344107915713000000005602507449289733784_" gradientUnits="userSpaceOnUse" x1="193.535" y1="17.4133" x2="198.3893" y2="17.4133">
				<stop  offset="0" style="stop-color:#000000"/>
				<stop  offset="1" style="stop-color:#0002E9"/>
			</linearGradient>
			
				<path fill="url(#SVGID_00000000914344107915713000000005602507449289733784_)" stroke="#000000" stroke-width="0.75" stroke-miterlimit="10" d="
				M198.39,15.22c-0.25,1.68-0.5,3.36-0.75,5.04c-0.41,0.85-1.32,1.34-2.24,1.23c-0.89-0.11-1.64-0.76-1.86-1.64
				c0.08-1.69,0.25-3.08,0.41-4.1c0.17-1.09,0.29-1.53,0.68-1.88c0.76-0.69,2.3-0.78,3.16,0.07
				C198.24,14.39,198.35,14.95,198.39,15.22z"/>
			<path fill="none" stroke="#000000" stroke-width="0.75" stroke-miterlimit="10" d="M186.66,4.66c-0.05-0.05-0.11-0.11-0.16-0.16"
				/>
			<path fill="none" stroke="#000000" stroke-width="0.75" stroke-miterlimit="10" d="M152.86,43.5c-0.09,0-0.17,0-0.26,0"/>
			<path fill="none" stroke="#000000" stroke-width="0.75" stroke-miterlimit="10" d="M187.5,71.5c-5.05,2.86-12.2,1.3-15-4
				c-2.93-5.55,0.19-12.78,6-15c5.32-2.03,11.93,0.51,14,6C194.37,63.48,191.83,69.05,187.5,71.5z"/>
			
				<linearGradient id="SVGID_00000008855988856555199410000001841646309573608837_" gradientUnits="userSpaceOnUse" x1="175.7062" y1="62.3586" x2="188.8024" y2="62.3586">
				<stop  offset="0" style="stop-color:#000000"/>
				<stop  offset="1" style="stop-color:#FFFFFF"/>
			</linearGradient>
			
				<path fill="url(#SVGID_00000008855988856555199410000001841646309573608837_)" stroke="#000000" stroke-width="0.75" stroke-miterlimit="10" d="
				M188.43,60.03c1.13,3-0.4,6.35-3.01,7.83c-3.04,1.72-7.35,0.78-9.04-2.41c-1.76-3.34,0.12-7.7,3.61-9.04
				C183.2,55.2,187.18,56.72,188.43,60.03z"/>
			<g>
				<circle stroke="#000000" stroke-width="0.25" stroke-miterlimit="10" cx="150" cy="49" r="1"/>
			</g>
			<g>
				<circle stroke="#000000" stroke-width="0.25" stroke-miterlimit="10" cx="150" cy="49" r="1"/>
			</g>
			<g>
				<circle stroke="#000000" stroke-width="0.25" stroke-miterlimit="10" cx="156.7" cy="49" r="1"/>
			</g>
			<g>
				<path stroke="#000000" stroke-width="0.25" stroke-miterlimit="10" d="M154.3,49c0,0.31-0.14,0.58-0.36,0.77
					c-0.17,0.14-0.4,0.23-0.64,0.23c-0.27,0-0.52-0.11-0.7-0.28c-0.18-0.19-0.3-0.44-0.3-0.72c0-0.28,0.12-0.53,0.3-0.72
					c0.18-0.17,0.43-0.28,0.7-0.28c0.24,0,0.47,0.09,0.64,0.23C154.16,48.42,154.3,48.69,154.3,49z"/>
			</g>
			<g>
				<circle stroke="#000000" stroke-width="0.25" stroke-miterlimit="10" cx="148.4" cy="51.8" r="1"/>
			</g>
			<g>
				<circle stroke="#000000" stroke-width="0.25" stroke-miterlimit="10" cx="151.6" cy="51.8" r="1"/>
			</g>
			<g>
				<circle stroke="#000000" stroke-width="0.25" stroke-miterlimit="10" cx="151.6" cy="51.8" r="1"/>
			</g>
			<g>
				<circle stroke="#000000" stroke-width="0.25" stroke-miterlimit="10" cx="158.4" cy="51.8" r="1"/>
			</g>
			<g>
				<circle stroke="#000000" stroke-width="0.25" stroke-miterlimit="10" cx="155" cy="51.8" r="1"/>
			</g>
			<g>
				<circle stroke="#000000" stroke-width="0.25" stroke-miterlimit="10" cx="155" cy="51.8" r="1"/>
			</g>
			<g>
				<circle stroke="#000000" stroke-width="0.25" stroke-miterlimit="10" cx="160" cy="49" r="1"/>
			</g>
			<path fill="none" stroke="#000000" stroke-width="0.75" stroke-miterlimit="10" d="M198.5,5.5c8,1.33,16,2.67,24,4"/>
			<g>
				<g>
					<path d="M205.93,6.13c0.58,0.17,1.17,0.26,1.77,0.3c1.47,0.09,2.06-2.13,0.76-2.8c-0.64-0.32-1.29-0.59-1.98-0.76
						c-1.3-0.34-2.31,1.05-1.69,2.2c0.41,0.76,0.98,1.16,1.78,1.46c0.27-0.96,0.53-1.93,0.8-2.89c-0.17-0.04-0.34-0.09-0.51-0.15
						c-0.39,0.91-0.77,1.83-1.16,2.74c0.18,0.06,0.36,0.12,0.53,0.18c0.27-0.96,0.53-1.93,0.8-2.89c-0.26-0.05-0.53-0.1-0.79-0.14
						c-0.13,0.98-0.27,1.96-0.4,2.95c0.28,0.04,0.56,0.08,0.85,0.11c0.68,0.09,1.24-0.54,1.45-1.1c0.68-1.89-0.32-4.01-2.55-3.61
						c-1.01,0.18-1.3,1.42-0.9,2.2c0.41,0.79,1.14,1.16,2.01,1.2c1.22,0.06,2.09-1.75,1.06-2.56c-1.37-1.08-3.73-2.08-4.92-0.17
						c-1.16,1.85,0.72,3.25,2.41,3.32c1.22,0.04,1.76-1.29,1.3-2.26c-0.71-1.49-2.69-1.99-4.05-1.09c-0.78,0.51-1.05,1.66-0.3,2.36
						c0.09,0.08,0.17,0.16,0.26,0.24c1.12,1.05,2.82,0,2.51-1.46c-0.4-1.89-2.96-2.26-3.82-0.49c-0.43,0.89-0.08,1.9,0.9,2.2
						c0.58,0.18,1.08,0.14,1.57-0.22c0.84-0.62,1.09-2.03,0-2.59c-1.17-0.6-2.46-0.63-3.57,0.13c-0.96,0.66-0.96,1.93,0,2.59
						c0.68,0.47,1.37,0.38,2.07,0.04c1.23-0.58,0.78-2.39-0.36-2.74c-0.79-0.24-1.6-0.25-2.33,0.16c-0.42,0.23-0.79,0.79-0.74,1.3
						c0.2,1.96,2.55,2.42,4.2,2.71c1.98,0.35,3.98,0.36,5.98,0.55c2.13,0.2,4.25,0.57,6.36,0.92c2.04,0.33,4.1,0.63,6.09,1.19
						c1.58,0.45,2.75-2.06,1.16-2.74c-4.55-1.94-9.22-3.51-14.04-4.64c-1.88-0.44-2.68,2.45-0.8,2.89c4.55,1.07,9.02,2.5,13.32,4.34
						c0.39-0.91,0.77-1.83,1.16-2.74c-3.47-0.98-7.17-1.42-10.74-1.91c-1.75-0.24-3.49-0.38-5.25-0.49
						c-0.82-0.05-1.64-0.11-2.44-0.25c-0.66-0.11-1.88-0.24-2.41-0.66c0.15,0.35,0.29,0.71,0.44,1.06
						c-0.01-0.07-0.01-0.14-0.02-0.21c-0.25,0.43-0.5,0.86-0.74,1.3c0.01,0.05,0.01,0.1,0.02,0.14c-0.12-0.91-0.24-1.83-0.36-2.74
						c0.32-0.01,0.64-0.03,0.96-0.04c0,0.86,0,1.73,0,2.59c0.23-0.16,0.3-0.25,0.55-0.13c0-0.86,0-1.73,0-2.59
						c-0.06,0.05-0.13,0.09-0.19,0.14c0.39-0.05,0.77-0.1,1.16-0.15c-0.07-0.02-0.15-0.05-0.22-0.07c0.3,0.73,0.6,1.47,0.9,2.2
						c-0.55-0.08-1.11-0.15-1.66-0.23c0.84-0.49,1.67-0.97,2.51-1.46c-0.09-0.08-0.17-0.16-0.26-0.24c-0.1,0.79-0.2,1.57-0.3,2.36
						c0.14-0.09-0.12-0.14-0.05,0.02c0.43-0.75,0.86-1.5,1.3-2.26c-0.75-0.03-0.79,1.23-0.25,1.63c0.19,0.14,0.45,0.2,0.64,0.35
						c0.35-0.85,0.71-1.71,1.06-2.56c0.19,0.09,0.39,0.19,0.58,0.28c-0.3,0.73-0.6,1.47-0.9,2.2c-0.55-0.75-0.89-0.91-1-0.47
						c-0.04,0.13-0.09,0.26-0.14,0.39c0.48-0.37,0.96-0.73,1.45-1.1c-0.28-0.04-0.56-0.08-0.85-0.11c-1.66-0.22-2.06,2.65-0.4,2.95
						c0.26,0.05,0.53,0.1,0.79,0.14c1.89,0.34,2.65-2.28,0.8-2.89c-0.18-0.06-0.36-0.12-0.53-0.18c-1.59-0.53-2.72,2.05-1.16,2.74
						c0.4,0.18,0.8,0.34,1.23,0.45c1.89,0.5,2.59-2.24,0.8-2.89c0-0.03,0.01-0.05,0.01-0.08c-0.56,0.73-1.13,1.47-1.69,2.2
						c0.45,0.12,0.85,0.25,1.26,0.46c0.25-0.93,0.5-1.86,0.76-2.8c-0.35-0.02-0.64-0.09-0.97-0.19
						C204.87,2.69,204.08,5.58,205.93,6.13L205.93,6.13z"/>
				</g>
			</g>
			<g>
				<g>
					<path d="M221.59,9.52c1.93,0,1.93-3,0-3C219.65,6.52,219.65,9.52,221.59,9.52L221.59,9.52z"/>
				</g>
			</g>
			<g>
				<g>
					<path d="M200.07,6.14c1.93,0,1.93-3,0-3C198.14,3.14,198.14,6.14,200.07,6.14L200.07,6.14z"/>
				</g>
			</g>
			<g opacity="0.38">
				<line fill="none" stroke="#FFFFFF" stroke-width="0.25" stroke-miterlimit="10" x1="222" y1="8" x2="199" y2="3"/>
			</g>
		</g>
		<path fill="none" stroke="#000000" stroke-miterlimit="10" d="M152.01,22.91"/>
		<path fill="none" stroke="#000000" stroke-miterlimit="10" d="M155.79,25.82"/>
		<path fill="none" stroke="#000000" stroke-miterlimit="10" d="M154.9,13.79"/>
		<path fill="none" stroke="#000000" stroke-miterlimit="10" d="M152.01,16.13"/>
		<path fill="none" stroke="#000000" stroke-miterlimit="10" d="M154.71,6.67"/>
		<path fill="none" stroke="#FFFFFF" stroke-miterlimit="10" d="M153.94,4.02"/>
		<line fill="none" stroke="#000000" stroke-miterlimit="10" x1="155.34" y1="40.59" x2="151.75" y2="44.81"/>
		<path fill="none" stroke="#000000" stroke-miterlimit="10" d="M155.79,25.82"/>
		<path fill="none" stroke="#000000" stroke-miterlimit="10" d="M149.52,21"/>
		<path fill="none" stroke="#000000" stroke-miterlimit="10" d="M155.26,13.51"/>
		<path fill="none" stroke="#000000" stroke-miterlimit="10" d="M150.31,17.49"/>
		<g>
			<line fill="none" stroke="#000000" stroke-miterlimit="10" x1="152.94" y1="43.23" x2="151.86" y2="44.5"/>
		</g>
		<g>
			<g>
				<path d="M151.62,53.29c1.93,0,1.93-3,0-3C149.69,50.29,149.69,53.29,151.62,53.29L151.62,53.29z"/>
			</g>
		</g>
		<g>
			<g>
				<path d="M154.99,53.28c1.93,0,1.93-3,0-3C153.06,50.28,153.06,53.28,154.99,53.28L154.99,53.28z"/>
			</g>
		</g>
	</g>
	
		<linearGradient id="SVGID_00000156561239170916803120000013337764162422104485_" gradientUnits="userSpaceOnUse" x1="133.5" y1="22.5" x2="133.5" y2="22.5">
		<stop  offset="0" style="stop-color:#000000"/>
		<stop  offset="1" style="stop-color:#FFFFFF"/>
	</linearGradient>
	<path fill="url(#SVGID_00000156561239170916803120000013337764162422104485_)" stroke="#000000" stroke-miterlimit="10" d="
		M133.5,22.5"/>
	<g>
		
			<linearGradient id="SVGID_00000032643565399577371040000017477267031719144891_" gradientUnits="userSpaceOnUse" x1="108" y1="75.1141" x2="134.1763" y2="75.1141">
			<stop  offset="0" style="stop-color:#000000"/>
			<stop  offset="0.065" style="stop-color:#001B02"/>
			<stop  offset="0.1809" style="stop-color:#004604"/>
			<stop  offset="0.2854" style="stop-color:#006506"/>
			<stop  offset="0.3738" style="stop-color:#007808"/>
			<stop  offset="0.4354" style="stop-color:#007F08"/>
			<stop  offset="0.5505" style="stop-color:#005C06"/>
			<stop  offset="0.7298" style="stop-color:#002A03"/>
			<stop  offset="0.8662" style="stop-color:#000C01"/>
			<stop  offset="0.9426" style="stop-color:#000000"/>
		</linearGradient>
		<path fill="url(#SVGID_00000032643565399577371040000017477267031719144891_)" d="M134.18,80.96c0,0.65-0.42,1.24-1.04,1.44
			c-2.01,0.64-5.15,1.4-8.76,1.4c-4.83,0-8.81-1.23-11.93-4.21c-2.74-2.65-4.45-6.91-4.45-11.88c0.05-9.51,6.58-16.47,17.28-16.47
			c2.71,0,4.99,0.43,6.55,0.93c0.79,0.25,1.24,1.08,1.01,1.88l-0.14,0.46c-0.24,0.82-1.11,1.27-1.92,1
			c-1.45-0.48-3.23-0.81-5.59-0.81c-7.76,0-12.83,4.83-12.83,12.83c0,8.1,4.88,12.88,12.31,12.88c1.88,0,3.35-0.18,4.39-0.46
			c0.66-0.17,1.1-0.78,1.1-1.46v-6.95c0-0.83-0.67-1.51-1.5-1.51l-0.01,0c-0.84-0.01-1.52,0.67-1.52,1.5
			c-0.04,8.66-0.08,17.32-0.11,25.98c0,0.83-0.68,1.5-1.51,1.5l0,0c-0.83,0-1.5-0.67-1.51-1.5c-0.1-9.76-0.2-19.51-0.3-29.27
			c-0.01-0.84,0.67-1.53,1.51-1.53h7.47c0.83,0,1.51,0.68,1.51,1.51V80.96z"/>
	</g>
	<g>
		
			<linearGradient id="SVGID_00000008869110333940489590000014141692203859304630_" gradientUnits="userSpaceOnUse" x1="129" y1="92.5088" x2="136.1442" y2="92.5088">
			<stop  offset="0" style="stop-color:#000000"/>
			<stop  offset="0.065" style="stop-color:#001B02"/>
			<stop  offset="0.1809" style="stop-color:#004604"/>
			<stop  offset="0.2854" style="stop-color:#006506"/>
			<stop  offset="0.3738" style="stop-color:#007808"/>
			<stop  offset="0.4354" style="stop-color:#007F08"/>
			<stop  offset="0.5505" style="stop-color:#005C06"/>
			<stop  offset="0.7298" style="stop-color:#002A03"/>
			<stop  offset="0.8662" style="stop-color:#000C01"/>
			<stop  offset="0.9426" style="stop-color:#000000"/>
		</linearGradient>
		<path fill="url(#SVGID_00000008869110333940489590000014141692203859304630_)" d="M129,86c0.24,0.72,0.65,1.58,1.42,1.84
			c0.44,0.15,0.65-0.05,1.37-0.05c1.49,0,2.45,0.27,3.12,0.88c0.54,0.48,0.85,1.22,0.85,2.05c0,1.42-0.9,2.37-2.03,2.75v0.05
			c0.83,0.29,1.33,1.06,1.58,2.18c0.35,1.5,0.61,2.55,0.83,2.96h-0.42c-0.64,0-1.21-0.42-1.37-1.04c-0.11-0.42-0.23-0.93-0.37-1.53
			c-0.32-1.49-0.9-2.05-2.16-2.1h-1.31v4.67c-0.04,0.06-0.21,0.29-0.51,0.35c-0.32,0.07-0.66-0.07-0.88-0.35
			C129.08,94.43,129.04,90.22,129,86z M130.51,91.5c0,0.79,0.64,1.42,1.42,1.42c1.49,0,2.43-0.82,2.43-2.05c0-0.18,0-0.74-0.35-1.18
			c-0.41-0.52-1.07-0.59-2.02-0.69c-0.63-0.07-1.15-0.05-1.49-0.02C130.51,89.82,130.51,90.66,130.51,91.5z"/>
		
			<linearGradient id="SVGID_00000105390106460897025790000010570980686296763318_" gradientUnits="userSpaceOnUse" x1="137.1411" y1="93.2559" x2="147" y2="93.2559">
			<stop  offset="0" style="stop-color:#000000"/>
			<stop  offset="0.065" style="stop-color:#001B02"/>
			<stop  offset="0.1809" style="stop-color:#004604"/>
			<stop  offset="0.2854" style="stop-color:#006506"/>
			<stop  offset="0.3738" style="stop-color:#007808"/>
			<stop  offset="0.4354" style="stop-color:#007F08"/>
			<stop  offset="0.5505" style="stop-color:#005C06"/>
			<stop  offset="0.7298" style="stop-color:#002A03"/>
			<stop  offset="0.8662" style="stop-color:#000C01"/>
			<stop  offset="0.9426" style="stop-color:#000000"/>
		</linearGradient>
		<path fill="url(#SVGID_00000105390106460897025790000010570980686296763318_)" d="M147,93.14c0,3.71-2.26,5.68-5.01,5.68
			c-2.85,0-4.85-2.21-4.85-5.47c0-3.42,2.13-5.67,5.01-5.67C145.1,87.69,147,89.94,147,93.14z M138.63,93.32
			c0,2.31,1.25,4.37,3.44,4.37c2.21,0,3.46-2.03,3.46-4.48c0-2.14-1.12-4.39-3.44-4.39C139.78,88.82,138.63,90.95,138.63,93.32z"/>
	</g>
	<g>
		
			<linearGradient id="SVGID_00000172411323707599994250000009221121848529209993_" gradientUnits="userSpaceOnUse" x1="136.5479" y1="76.6235" x2="141.1768" y2="76.6235">
			<stop  offset="0" style="stop-color:#000000"/>
			<stop  offset="0.065" style="stop-color:#001B02"/>
			<stop  offset="0.1809" style="stop-color:#004604"/>
			<stop  offset="0.2854" style="stop-color:#006506"/>
			<stop  offset="0.3738" style="stop-color:#007808"/>
			<stop  offset="0.4354" style="stop-color:#007F08"/>
			<stop  offset="0.5505" style="stop-color:#005C06"/>
			<stop  offset="0.7298" style="stop-color:#002A03"/>
			<stop  offset="0.8662" style="stop-color:#000C01"/>
			<stop  offset="0.9426" style="stop-color:#000000"/>
		</linearGradient>
		<path fill="url(#SVGID_00000172411323707599994250000009221121848529209993_)" d="M140.22,79.53l-0.08-0.73h-0.04
			c-0.32,0.46-0.95,0.86-1.78,0.86c-1.17,0-1.77-0.83-1.77-1.67c0-1.4,1.25-2.17,3.49-2.16v-0.12c0-0.29-0.05-0.73-0.35-1.02
			c-0.35-0.33-0.81-0.33-0.97-0.32c-0.8,0.01-1.16,0.62-1.51,0.43c-0.21-0.11-0.32-0.46-0.24-0.7c0.22-0.63,1.74-0.53,1.91-0.52
			c0.52,0.04,1.07,0.07,1.54,0.5c0.51,0.46,0.66,1.18,0.66,1.87v2.17c0,0.5,0.02,1,0.1,1.39H140.22z M140.06,76.57
			c-1.15-0.02-2.46,0.18-2.46,1.31c0,0.68,0.46,1.01,1,1.01c0.76,0,1.24-0.48,1.4-0.97c0.04-0.11,0.06-0.23,0.06-0.34V76.57z"/>
		
			<linearGradient id="SVGID_00000081608244404842378080000013324685782177361827_" gradientUnits="userSpaceOnUse" x1="142.7393" y1="82.2979" x2="151.0752" y2="82.2979">
			<stop  offset="0" style="stop-color:#000000"/>
			<stop  offset="0.065" style="stop-color:#001B02"/>
			<stop  offset="0.1809" style="stop-color:#004604"/>
			<stop  offset="0.2854" style="stop-color:#006506"/>
			<stop  offset="0.3738" style="stop-color:#007808"/>
			<stop  offset="0.4354" style="stop-color:#007F08"/>
			<stop  offset="0.5505" style="stop-color:#005C06"/>
			<stop  offset="0.7298" style="stop-color:#002A03"/>
			<stop  offset="0.8662" style="stop-color:#000C01"/>
			<stop  offset="0.9426" style="stop-color:#000000"/>
		</linearGradient>
		<path fill="url(#SVGID_00000081608244404842378080000013324685782177361827_)" d="M142.79,75.3c0-0.6-0.01-1.09-0.05-1.57
			c0.15,0,0.3,0,0.44,0c0.16,0,0.32,0,0.48,0c0.02,0.31,0.03,0.62,0.05,0.94h0.04c0.32-0.55,0.86-1.07,1.82-1.07
			c0.79,0,1.39,0.48,1.64,1.16h0.02c0.18-0.32,0.41-0.58,0.65-0.76c0.35-0.26,0.73-0.41,1.28-0.41c0.77,0,1.91,0.5,1.91,2.52
			c0,0.38,0,0.69,0,1.02c-0.01,0.96-0.03,1.91-0.06,2.87c-0.03,0.89-0.05,3.06-0.02,8.58c0,0.9-0.35,1.78-0.99,2.42l0,0l0,0
			c0-0.33,0-0.67,0-1c0.08-7.19,0.08-12.47,0.04-13.75c-0.01-0.37-0.05-1.24-0.61-1.61c-0.18-0.12-0.39-0.18-0.65-0.18
			c-0.6,0-1.07,0.44-1.25,0.96c-0.05,0.14-0.08,0.34-0.08,0.53v3.59h-1.03v-3.48c0-0.92-0.41-1.6-1.21-1.6
			c-0.66,0-1.14,0.53-1.31,1.06c-0.06,0.16-0.08,0.34-0.08,0.52v3.5h-1.03V75.3z"/>
		
			<linearGradient id="SVGID_00000135667598136411786840000010434060016974637221_" gradientUnits="userSpaceOnUse" x1="152.376" y1="76.624" x2="157.4971" y2="76.624">
			<stop  offset="0" style="stop-color:#000000"/>
			<stop  offset="0.065" style="stop-color:#001B02"/>
			<stop  offset="0.1809" style="stop-color:#004604"/>
			<stop  offset="0.2854" style="stop-color:#006506"/>
			<stop  offset="0.3738" style="stop-color:#007808"/>
			<stop  offset="0.4354" style="stop-color:#007F08"/>
			<stop  offset="0.5505" style="stop-color:#005C06"/>
			<stop  offset="0.7298" style="stop-color:#002A03"/>
			<stop  offset="0.8662" style="stop-color:#000C01"/>
			<stop  offset="0.9426" style="stop-color:#000000"/>
		</linearGradient>
		<path fill="url(#SVGID_00000135667598136411786840000010434060016974637221_)" d="M153.38,76.82c0.02,1.43,0.94,2.01,1.99,2.01
			c0.76,0,1.21-0.13,1.61-0.3l0.18,0.75c-0.37,0.17-1.01,0.36-1.93,0.36c-1.79,0-2.85-1.18-2.85-2.93s1.03-3.13,2.72-3.13
			c1.89,0,2.4,1.67,2.4,2.73c0,0.22-0.02,0.38-0.04,0.49H153.38z M156.48,76.07c0.01-0.67-0.28-1.72-1.46-1.72
			c-1.07,0-1.54,0.98-1.62,1.72H156.48z"/>
	</g>
	<g>
		<path stroke="#000000" stroke-width="0.5" stroke-miterlimit="10" d="M158,81.62"/>
	</g>
	<path stroke="#000000" stroke-miterlimit="10" d="M151,80"/>
	<g>
		<g>
			<path stroke="#000000" stroke-miterlimit="10" d="M136.55,81.62c0,0,7.34,0,11.01,0"/>
		</g>
		<line stroke="#000000" stroke-miterlimit="10" x1="152.38" y1="81.62" x2="157.5" y2="81.62"/>
	</g>
	<path stroke="#000000" stroke-miterlimit="10" d="M136.55,81.37"/>
</g>
</svg>
